# File created by Blade
# Date/Time:  Tue Jan 27 20:08:00 2015
#---------------------------------------------------------
:version 1.10
:name HOM
:units
  mass 1.0
  length 1.000000
  angle deg
:documentation
     Acclaim Skeleton File
:root
   axis xyz
   order TX TY TZ RX RY RZ
   position 0.000000 0.000000 0.000000
   orientation 0 0 0
:bonedata
   begin
      id 1
      name Spine_dum
      direction 0.000000 1.000000 0.000000
      length 6.116652
      axis 0.0 0.0 0.0 xyz
   end
   begin
      id 2
      name LeftUpLeg_dum
      direction 1.000000 0.000000 0.000000
      length 4.711765
      axis 0.0 0.0 0.0 xyz
   end
   begin
      id 3
      name RightUpLeg_dum
      direction -1.000000 0.000000 0.000000
      length 4.711765
      axis 0.0 0.0 0.0 xyz
   end
   begin
      id 4
      name Spine
      direction 0.000000 1.000000 0.000000
      length 0.000000
      axis 0.0 0.0 0.0 xyz
      dof rx ry rz
   end
   begin
      id 5
      name Spine_dum1
      direction 0.000000 1.000000 0.000000
      length 15.225563
      axis 0.0 0.0 0.0 xyz
   end
   begin
      id 6
      name Spine_dum2
      direction 0.000000 1.000000 0.000000
      length 8.977654
      axis 0.0 0.0 0.0 xyz
   end
   begin
      id 7
      name Spine_dum3
      direction 0.000000 1.000000 0.000000
      length 8.977654
      axis 0.0 0.0 0.0 xyz
   end
   begin
      id 8
      name Head
      direction 0.000000 1.000000 0.000000
      length 4.527550
      axis 0.0 0.0 0.0 xyz
      dof rx ry rz
   end
   begin
      id 9
      name LeftShoulder
      direction 1.000000 0.000000 0.000000
      length 7.110130
      axis 0.0 0.0 -90.0 xyz
      dof rx ry rz
   end
   begin
      id 10
      name LeftArm
      direction 1.000000 0.000000 0.000000
      length 10.398341
      axis 0.0 0.0 -90.0 xyz
      dof rx ry rz
   end
   begin
      id 11
      name LeftForeArm
      direction 1.000000 0.000000 0.000000
      length 8.888997
      axis 0.0 0.0 -90.0 xyz
      dof ry rz rx
   end
   begin
      id 12
      name LeftHand
      direction 0.000000 0.000000 0.000000
      length 0.000000
      axis 0.0 0.0 -90.0 xyz
      dof rx ry rz
   end
   begin
      id 13
      name LeftHand_dum1
      direction 0.000000 0.000000 0.000000
      length 0.000000
      axis 0.0 0.0 -90.0 xyz
   end
   begin
      id 14
      name LeftHand_dum2
      direction 1.000000 0.000000 0.000000
      length 3.937000
      axis 0.0 0.0 -90.0 xyz
   end
   begin
      id 15
      name LeftHandThumb1
      direction 0.000000 0.000000 1.000000
      length 3.937000
      axis 0.0 0.0 -90.0 xyz
      dof rx rz ry
   end
   begin
      id 16
      name RightShoulder
      direction -1.000000 0.000000 0.000000
      length 7.110130
      axis 0.0 0.0 90.0 xyz
      dof rx ry rz
   end
   begin
      id 17
      name RightArm
      direction -1.000000 0.000000 0.000000
      length 10.398341
      axis 0.0 0.0 90.0 xyz
      dof rx ry rz
   end
   begin
      id 18
      name RightForeArm
      direction -1.000000 0.000000 0.000000
      length 8.888997
      axis 0.0 0.0 90.0 xyz
      dof ry rz rx
   end
   begin
      id 19
      name RightHand
      direction 0.000000 0.000000 0.000000
      length 0.000000
      axis 0.0 0.0 90.0 xyz
      dof rx ry rz
   end
   begin
      id 20
      name RightHand_dum1
      direction 0.000000 0.000000 0.000000
      length 0.000000
      axis 0.0 0.0 90.0 xyz
   end
   begin
      id 21
      name RightHand_dum2
      direction -1.000000 0.000000 0.000000
      length 3.937000
      axis 0.0 0.0 90.0 xyz
   end
   begin
      id 22
      name RightHandThumb1
      direction 0.000000 0.000000 1.000000
      length 3.937000
      axis 0.0 0.0 90.0 xyz
      dof rx rz ry
   end
   begin
      id 23
      name LeftUpLeg
      direction 0.000000 -1.000000 0.000000
      length 15.510451
      axis 0.0 0.0 0.0 xyz
      dof rx ry rz
   end
   begin
      id 24
      name LeftLeg
      direction 0.000000 -1.000000 0.000000
      length 14.858061
      axis 0.0 0.0 0.0 xyz
      dof rx ry rz
   end
   begin
      id 25
      name LeftFoot
      direction 0.000000 -0.258819 0.965926
      length 5.128852
      axis 15.0 0.0 0.0 xyz
      dof rx ry rz
   end
   begin
      id 26
      name LeftToeBase
      direction 0.000000 0.000000 1.000000
      length 2.952750
      axis 0.0 0.0 0.0 xyz
      dof rx ry rz
   end
   begin
      id 27
      name RightUpLeg
      direction 0.000000 -1.000000 0.000000
      length 15.510451
      axis 0.0 0.0 0.0 xyz
      dof rx ry rz
   end
   begin
      id 28
      name RightLeg
      direction 0.000000 -1.000000 0.000000
      length 14.858061
      axis 0.0 0.0 0.0 xyz
      dof rx ry rz
   end
   begin
      id 29
      name RightFoot
      direction 0.000000 -0.258819 0.965926
      length 5.128852
      axis 15.0 0.0 0.0 xyz
      dof rx ry rz
   end
   begin
      id 30
      name RightToeBase
      direction 0.000000 0.000000 1.000000
      length 2.952750
      axis 0.0 0.0 0.0 xyz
      dof rx ry rz
   end
:hierarchy
   begin
      root Spine_dum LeftUpLeg_dum RightUpLeg_dum
      Spine_dum Spine
      LeftUpLeg_dum LeftUpLeg
      RightUpLeg_dum RightUpLeg
      Spine Spine_dum1 Spine_dum2 Spine_dum3
      Spine_dum1 Head
      Spine_dum2 LeftShoulder
      Spine_dum3 RightShoulder
      LeftShoulder LeftArm
      LeftArm LeftForeArm
      LeftForeArm LeftHand
      LeftHand LeftHand_dum1 LeftHand_dum2
      LeftHand_dum1 LeftHandThumb1
      RightShoulder RightArm
      RightArm RightForeArm
      RightForeArm RightHand
      RightHand RightHand_dum1 RightHand_dum2
      RightHand_dum1 RightHandThumb1
      LeftUpLeg LeftLeg
      LeftLeg LeftFoot
      LeftFoot LeftToeBase
      RightUpLeg RightLeg
      RightLeg RightFoot
      RightFoot RightToeBase
   end

# File created by Blade
# Date/Time:  Tue Jan 27 20:07:51 2015
# Frame Rate: 120.000 fps
#------------------------------------------------------
:FULLY-SPECIFIED
:DEGREES
1026
root 6.022688 32.278393 -4.687461 -5.103074 -1.501932 -2.365863
Spine 5.583694 7.917807 -1.507705
Head 16.284236 -5.261467 4.913094
LeftShoulder -13.757866 -0.578572 31.807341
LeftArm -4.578048 -10.078477 -78.905481
LeftForeArm -11.956609 0.000000 114.566192
LeftHand 11.143324 -0.000000 10.341390
LeftHandThumb1 -26.253704 0.000000 33.147579
RightShoulder -18.888397 -18.053939 -20.701953
RightArm 10.362639 -24.006341 93.580241
RightForeArm -15.215385 0.000000 23.769668
RightHand 16.818208 -0.000000 1.915399
RightHandThumb1 -24.326973 -0.000000 -32.862282
LeftUpLeg 10.683033 -1.726450 -6.563061
LeftLeg -1.381426 -0.000000 0.000000
LeftFoot -15.827606 16.544621 -15.781390
LeftToeBase 18.847528 -0.000000 -0.000000
RightUpLeg -38.749771 7.703776 8.903041
RightLeg 69.904787 -0.000000 -0.000000
RightFoot 29.667031 -24.792747 17.978991
RightToeBase 11.490903 -0.000000 -0.000000
1027
root 6.024154 32.275165 -4.684263 -5.097880 -1.474104 -2.339710
Spine 5.586920 7.947639 -1.511358
Head 16.222075 -5.271918 4.841856
LeftShoulder -13.551596 -1.197843 31.919467
LeftArm -5.342369 -10.146373 -78.723214
LeftForeArm -12.010840 -0.000000 114.663380
LeftHand 11.172852 -0.000000 10.340133
LeftHandThumb1 -26.253704 0.000000 33.147579
RightShoulder -18.890271 -18.056941 -20.754854
RightArm 10.365780 -23.985289 93.654280
RightForeArm -15.389512 -0.000000 23.844684
RightHand 16.713107 -0.000000 2.157028
RightHandThumb1 -24.326973 -0.000000 -32.862282
LeftUpLeg 10.684867 -1.713300 -6.586151
LeftLeg -1.385824 -0.000000 0.000000
LeftFoot -15.818124 16.489937 -15.779354
LeftToeBase 18.724145 -0.000000 -0.000000
RightUpLeg -38.744216 7.756254 8.856703
RightLeg 69.969378 -0.000000 -0.000000
RightFoot 29.685110 -24.788428 17.925089
RightToeBase 11.258549 -0.000000 -0.000000
1028
root 6.025616 32.273814 -4.680510 -5.091378 -1.443791 -2.337359
Spine 5.581063 7.953232 -1.510745
Head 16.173528 -5.289779 4.832703
LeftShoulder -13.503451 -1.322577 31.945704
LeftArm -5.493107 -10.160004 -78.685542
LeftForeArm -12.025896 -0.000000 114.682460
LeftHand 11.173541 -0.000000 10.306327
LeftHandThumb1 -26.253704 0.000000 33.147579
RightShoulder -18.861579 -18.072533 -20.764442
RightArm 10.405627 -24.014315 93.654367
RightForeArm -15.364760 -0.000000 23.904307
RightHand 16.525577 0.000000 2.318053
RightHandThumb1 -24.326973 -0.000000 -32.862282
LeftUpLeg 10.683341 -1.702894 -6.590062
LeftLeg -1.383074 -0.000000 0.000000
LeftFoot -15.816610 16.466487 -15.766851
LeftToeBase 18.701168 -0.000000 -0.000000
RightUpLeg -38.716097 7.812703 8.817672
RightLeg 70.001410 -0.000000 -0.000000
RightFoot 29.668024 -24.724646 17.932829
RightToeBase 11.404667 -0.000000 -0.000000
1029
root 6.030491 32.272107 -4.677215 -5.077647 -1.422181 -2.314509
Spine 5.569239 7.976684 -1.534276
Head 16.120938 -5.307856 4.832026
LeftShoulder -13.501049 -1.266744 31.943921
LeftArm -5.412724 -10.156094 -78.706466
LeftForeArm -12.057698 -0.000000 114.667088
LeftHand 11.196712 -0.000000 10.310446
LeftHandThumb1 -26.253704 0.000000 33.147579
RightShoulder -18.846654 -18.084102 -20.763451
RightArm 10.453214 -24.038369 93.637167
RightForeArm -15.288146 0.000000 23.933603
RightHand 16.585288 -0.000000 2.310700
RightHandThumb1 -24.326973 -0.000000 -32.862282
LeftUpLeg 10.678620 -1.680915 -6.616001
LeftLeg -1.391753 -0.000000 0.000000
LeftFoot -15.801534 16.442121 -15.737173
LeftToeBase 18.748366 -0.000000 -0.000000
RightUpLeg -38.713211 7.856651 8.766704
RightLeg 70.055819 -0.000000 -0.000000
RightFoot 29.686489 -24.753894 17.865774
RightToeBase 11.588680 -0.000000 -0.000000
1030
root 6.032586 32.272371 -4.673149 -5.070544 -1.390522 -2.317769
Spine 5.561557 7.928933 -1.532129
Head 16.086757 -5.271601 4.815646
LeftShoulder -13.531096 -1.229350 31.931537
LeftArm -5.392377 -10.155588 -78.695046
LeftForeArm -12.067161 -0.000000 114.667443
LeftHand 11.187050 -0.000000 10.303130
LeftHandThumb1 -26.253704 0.000000 33.147579
RightShoulder -18.772313 -18.087119 -20.773028
RightArm 10.527202 -24.070110 93.609120
RightForeArm -15.273027 0.000000 23.921948
RightHand 16.695477 -0.000000 1.989475
RightHandThumb1 -24.326973 -0.000000 -32.862282
LeftUpLeg 10.677242 -1.667004 -6.607910
LeftLeg -1.392288 -0.000000 0.000000
LeftFoot -15.789737 16.380368 -15.744234
LeftToeBase 18.844183 -0.000000 -0.000000
RightUpLeg -38.684927 7.866458 8.745278
RightLeg 70.103016 -0.000000 -0.000000
RightFoot 29.743115 -24.624225 17.594416
RightToeBase 12.017266 -0.000000 -0.000000
1031
root 6.036278 32.271715 -4.669194 -5.067538 -1.369655 -2.302367
Spine 5.560754 7.933340 -1.547913
Head 16.046597 -5.276859 4.813289
LeftShoulder -13.524283 -1.177681 31.926797
LeftArm -5.344571 -10.167943 -78.694922
LeftForeArm -12.087544 -0.000000 114.663151
LeftHand 11.194892 -0.000000 10.279898
LeftHandThumb1 -26.253704 0.000000 33.147579
RightShoulder -18.745393 -18.068142 -20.788862
RightArm 10.554940 -24.120768 93.602771
RightForeArm -15.207623 -0.000000 23.941826
RightHand 16.671912 -0.000000 1.867852
RightHandThumb1 -24.326973 -0.000000 -32.862282
LeftUpLeg 10.682861 -1.637886 -6.623717
LeftLeg -1.399909 -0.000000 0.000000
LeftFoot -15.768012 16.438831 -15.477151
LeftToeBase 19.065933 -0.000000 -0.000000
RightUpLeg -38.662218 7.884469 8.706134
RightLeg 70.160464 -0.000000 -0.000000
RightFoot 29.763945 -24.588875 17.562598
RightToeBase 12.192624 -0.000000 -0.000000
